<?xml version="1.0" encoding="UTF-8"?>
<svg version="1.1" xmlns="http://www.w3.org/2000/svg" width="1200" height="1000" viewBox="0 0 1200 1000">
  <style>
    .water { fill: #aadaff; }
    .land { fill: #f2efe9; stroke: #dcd0b9; stroke-width: 1.5px; }
    .custom-area { stroke: #888888; stroke-width: 1px; fill-opacity: 0.6; }
    .marker { fill: #555; }
    .label { font-family: Arial, sans-serif; font-size: 12px; font-weight: bold; fill: #222; text-anchor: middle; paint-order: stroke; stroke: #ffffff; stroke-width: 3px; stroke-linecap: round; stroke-linejoin: round; }
  </style>
  <rect width="100%" height="100%" class="water" />
  <path id="island_base" class="land" fill-rule="evenodd" d="M66.8,811.5 67.1,810.7 66.5,810.3 66.1,810.7 66.8,811.5Z M164.8,831.3 164.9,831.2 164.7,831.2 164.8,831.3Z M164.4,832.3 165.1,832.1 164.4,832.2 164.4,832.3Z M162.5,832.2 162.9,832.5 163.0,832.4 162.5,832.2Z M523.1,861.1 523.2,860.8 523.0,860.9 523.1,861.1Z M523.5,861.4 523.8,860.9 523.3,861.2 523.5,861.4Z M362.8,944.5 363.3,944.6 363.1,944.3 362.8,944.5Z M361.5,946.5 362.3,946.1 361.4,946.1 361.5,946.5Z M319.0,947.4 319.2,946.8 318.8,946.9 319.0,947.4Z M57.9,804.7 59.5,803.9 61.3,804.5 61.6,806.2 62.1,805.9 63.7,808.8 65.0,809.6 67.2,809.4 68.9,811.2 68.3,812.4 68.8,813.3 70.9,814.2 72.5,816.9 74.6,818.4 75.8,821.3 77.0,817.4 81.4,817.4 84.3,819.4 84.4,820.3 88.6,822.4 91.1,822.2 92.6,817.9 94.7,816.2 100.1,818.0 100.8,820.1 103.7,822.5 106.9,822.2 110.9,816.0 115.2,813.7 118.2,813.5 124.3,816.5 123.4,819.8 123.9,821.3 126.9,824.7 128.7,828.8 129.6,829.1 132.9,827.7 139.3,829.2 140.5,827.8 141.9,828.1 143.0,827.2 144.2,829.2 148.5,829.9 148.5,830.7 152.0,831.7 152.5,832.6 155.3,833.1 163.8,831.6 165.4,830.6 167.9,830.6 173.9,825.4 177.8,825.0 182.7,827.6 186.0,830.6 189.0,835.0 190.1,838.1 190.1,839.8 189.2,841.1 191.2,841.2 187.4,844.2 184.9,844.2 181.8,846.4 181.5,847.5 178.0,850.7 178.0,853.7 179.9,854.5 181.0,853.1 187.8,849.8 189.8,850.7 191.8,846.3 196.3,845.7 203.2,847.2 204.7,846.3 205.2,847.6 207.2,847.7 207.2,846.4 209.5,843.4 212.7,843.3 214.1,842.5 217.1,843.4 222.4,847.9 220.6,851.4 223.5,852.5 228.4,860.0 228.4,861.0 226.1,863.1 226.6,865.8 228.9,868.3 233.4,870.9 234.9,870.7 235.8,868.8 235.4,865.2 236.6,864.3 241.1,863.8 243.0,865.8 244.1,865.4 251.8,870.3 254.3,870.7 256.0,870.2 258.9,871.5 259.4,871.0 257.5,869.5 260.9,869.3 269.4,875.5 275.8,883.2 278.2,883.9 280.1,887.4 286.7,891.5 292.5,893.8 294.0,903.1 292.6,904.4 291.7,904.5 291.7,903.9 286.8,906.6 288.3,917.3 286.1,920.9 283.7,923.3 283.3,924.6 285.1,927.7 295.1,926.4 297.1,927.2 298.1,928.9 301.7,929.1 301.6,928.5 298.2,928.2 297.8,927.3 300.7,925.5 301.9,925.7 302.0,927.0 303.0,924.8 304.5,924.8 309.0,927.1 311.4,930.5 310.9,933.6 312.9,940.9 311.1,942.1 310.2,946.2 313.1,947.6 317.6,947.4 321.6,943.5 321.7,942.4 322.6,941.9 321.9,938.1 323.0,934.9 327.0,933.9 331.6,934.4 335.0,936.4 336.5,939.0 339.9,942.1 344.1,950.2 342.0,950.8 341.2,952.4 343.2,952.6 344.3,951.4 348.1,954.5 351.2,952.4 355.8,954.1 357.9,954.1 358.2,953.2 357.3,951.6 355.0,951.4 354.9,947.7 361.4,945.2 365.6,940.8 366.9,935.1 368.6,934.2 367.3,933.8 367.7,932.5 372.0,932.1 374.3,929.1 374.8,927.2 374.2,925.9 375.4,924.9 374.2,924.8 373.8,923.5 374.5,922.8 377.7,921.4 384.6,921.9 396.3,924.8 400.6,921.3 402.7,916.8 408.3,911.6 416.4,909.0 419.6,909.5 423.1,912.6 419.7,915.8 424.8,914.6 428.2,915.5 428.8,914.7 426.9,912.3 426.9,911.4 429.0,908.0 434.5,904.2 436.8,904.7 443.9,899.1 445.8,898.8 443.8,898.0 445.9,895.8 452.6,897.9 460.2,894.2 464.4,891.1 461.3,886.1 459.2,883.8 457.6,883.4 457.7,882.2 456.6,881.3 456.2,879.7 457.1,877.3 470.7,863.7 478.2,857.6 485.1,858.0 491.2,857.2 493.6,855.1 497.2,854.4 501.1,856.5 502.3,858.5 504.8,859.5 506.6,858.5 518.8,861.6 521.1,861.3 521.7,860.3 522.3,861.1 524.7,860.2 525.4,860.8 526.4,858.6 528.8,858.7 529.8,859.3 530.5,858.7 529.7,858.5 528.9,856.1 530.3,855.8 529.8,855.0 527.4,853.7 526.9,851.9 528.9,848.6 528.4,845.6 526.2,845.7 525.8,844.8 526.1,842.4 530.3,838.7 533.9,837.0 544.9,836.3 549.9,838.1 551.4,840.6 550.6,841.7 548.1,841.9 550.0,844.2 549.7,845.6 549.1,845.5 550.0,847.3 548.3,850.6 548.7,851.5 549.6,852.1 551.5,851.2 551.1,850.3 551.6,849.9 554.1,850.2 553.3,851.0 561.1,856.8 561.4,858.9 563.9,858.0 567.0,858.8 570.5,858.5 568.4,854.7 564.3,851.1 562.0,850.1 559.2,850.7 559.4,849.8 560.5,849.5 558.9,846.5 555.9,843.8 555.0,841.9 557.0,840.8 558.5,841.7 559.7,841.2 559.6,840.2 564.6,839.5 565.3,837.7 570.4,833.6 570.0,832.7 571.3,830.2 570.7,829.2 561.0,828.1 560.3,824.4 560.9,821.9 562.5,821.8 563.1,819.7 565.4,820.1 566.4,817.8 564.3,817.6 564.9,815.5 561.2,810.1 562.2,806.3 560.1,804.6 560.3,800.2 560.1,802.6 559.1,804.0 557.3,801.1 557.1,799.4 558.6,799.2 556.8,797.7 558.3,794.5 562.4,789.4 579.9,774.7 582.0,774.9 583.1,771.4 596.0,762.2 603.6,760.0 603.2,761.4 603.9,760.2 607.0,761.9 605.7,763.7 603.3,762.6 605.7,764.4 608.0,761.9 615.1,764.9 618.9,765.0 618.8,763.9 626.0,761.0 638.6,761.9 648.7,759.6 650.3,756.4 662.2,751.7 668.2,750.0 679.4,748.6 686.6,752.1 687.8,757.3 684.7,757.8 691.4,760.6 691.5,762.4 694.3,765.9 693.6,767.9 699.9,771.6 700.7,774.1 698.2,777.9 698.8,782.6 701.7,785.8 703.1,790.4 704.5,789.7 704.1,787.9 709.0,784.9 708.4,786.5 709.1,788.4 710.5,788.9 710.1,790.0 711.0,791.3 713.4,791.5 712.6,792.8 714.2,794.0 713.8,795.8 715.4,796.3 715.0,797.1 718.1,797.7 718.2,798.4 719.5,797.8 721.0,798.6 724.5,795.4 726.5,795.4 731.8,798.6 731.0,798.7 737.4,800.0 745.4,796.9 744.4,796.2 745.4,794.8 746.5,795.4 750.0,794.0 751.3,792.5 749.8,790.0 751.2,789.7 751.7,787.7 752.8,787.6 755.5,789.2 756.7,788.6 754.5,784.4 751.6,781.2 749.9,776.5 760.1,774.5 762.9,773.0 761.5,766.9 759.0,765.9 757.2,761.7 750.2,762.2 747.8,763.9 743.7,764.4 739.0,760.6 738.3,756.1 740.8,754.5 746.9,755.3 750.6,753.3 751.2,752.1 749.8,748.1 743.4,742.0 744.0,740.7 746.9,741.4 751.9,738.7 751.2,736.8 750.1,736.6 750.6,735.6 752.5,735.4 749.1,734.6 749.2,732.5 752.3,729.3 753.2,730.0 755.8,729.1 756.6,729.8 758.7,727.9 759.3,728.5 760.7,727.9 762.2,725.5 761.0,724.2 761.6,719.0 763.8,719.5 763.8,718.7 762.2,718.3 763.0,717.8 762.7,717.3 765.3,716.7 765.6,715.1 762.7,708.2 762.9,705.5 757.7,702.2 757.2,698.6 751.0,698.8 748.4,700.7 746.5,699.1 745.5,699.1 745.6,700.1 740.9,700.5 738.1,699.6 735.2,697.5 733.3,692.1 734.7,691.0 733.4,689.8 732.9,681.8 734.5,676.3 737.4,671.7 742.0,669.2 744.5,670.0 747.4,669.4 748.3,670.3 750.4,669.5 753.7,671.2 752.2,671.7 752.1,672.5 753.6,672.9 754.8,672.0 755.8,672.8 758.7,672.9 762.4,671.8 763.7,672.0 764.0,673.6 765.5,674.2 769.7,672.3 770.5,673.7 775.4,675.7 778.7,674.3 778.6,672.9 785.4,670.7 784.5,668.8 790.6,668.5 795.3,666.3 801.1,667.2 805.0,666.1 806.3,666.4 808.6,669.2 811.2,668.5 809.6,671.1 812.1,673.0 811.9,676.3 813.6,679.3 816.1,678.5 820.1,674.6 817.7,673.9 817.9,673.0 820.6,671.3 823.4,672.8 823.5,678.5 825.6,681.8 831.9,684.7 839.3,684.5 845.8,683.2 847.7,683.5 848.0,685.0 851.3,684.5 853.2,686.0 858.5,687.4 861.7,687.4 866.1,681.5 867.7,680.7 869.0,678.4 871.0,676.9 874.0,667.5 869.9,663.9 868.9,657.0 862.7,655.9 863.9,652.8 863.5,649.7 861.6,649.1 860.5,646.4 857.5,643.9 860.5,638.1 859.1,638.0 860.2,636.2 856.8,632.1 854.2,630.5 851.9,630.4 852.7,628.0 856.1,626.7 858.9,626.7 862.8,623.5 861.5,622.1 861.5,620.8 860.3,620.5 861.9,616.6 865.3,614.7 867.9,616.3 869.7,613.5 870.8,615.8 875.4,615.2 882.0,611.3 882.6,610.2 886.3,609.6 889.6,606.4 890.8,603.9 890.8,599.7 890.2,599.9 890.7,598.2 893.6,598.2 896.6,596.3 899.7,592.3 903.1,590.8 911.8,595.3 917.8,595.5 920.6,596.8 924.7,595.5 931.9,595.2 934.2,594.2 932.7,595.6 934.7,595.5 940.1,591.9 943.7,585.7 942.6,584.9 943.4,582.2 939.0,577.0 935.3,575.1 932.5,575.1 931.4,573.4 928.6,572.9 928.6,573.7 927.2,573.9 927.0,572.5 923.1,570.5 923.3,568.8 928.5,565.1 929.1,560.6 925.9,557.6 919.1,557.8 913.1,561.3 908.0,563.0 898.7,563.5 896.6,562.7 894.8,560.8 893.9,558.1 890.9,556.2 891.9,554.7 890.2,555.6 885.4,551.0 882.4,541.3 879.6,538.2 882.9,520.5 887.8,506.1 887.5,503.9 888.8,502.4 888.3,497.7 890.4,493.9 890.4,491.8 892.1,491.5 890.4,490.6 890.3,489.5 891.0,488.3 893.2,487.1 894.6,487.6 892.8,492.4 893.5,492.7 894.8,488.9 898.8,483.5 898.8,481.4 900.2,480.1 904.7,478.4 908.8,481.9 910.7,481.8 909.8,482.2 913.4,482.7 918.0,482.2 919.9,481.1 917.1,478.6 916.9,476.1 917.4,475.0 918.2,475.0 918.5,472.6 919.2,472.0 920.7,472.5 920.5,470.6 920.9,471.1 921.4,469.9 924.3,469.2 926.0,470.4 925.7,471.3 927.5,474.0 932.5,474.6 933.7,473.9 935.0,475.1 935.4,478.5 939.0,480.2 939.5,482.1 938.8,483.0 941.0,484.9 945.5,485.2 945.1,483.9 946.4,484.1 946.4,482.1 949.9,483.9 952.9,484.4 954.0,484.1 954.4,482.6 956.7,482.2 958.4,480.6 960.2,480.1 960.7,478.7 961.6,479.1 962.7,476.8 962.1,473.3 963.0,472.6 963.3,469.3 964.8,468.5 969.0,468.4 970.2,469.8 972.0,470.2 972.9,472.9 971.5,476.8 973.4,476.7 973.3,477.9 981.2,474.2 986.7,470.1 989.6,471.6 992.9,468.5 996.7,466.6 1000.9,468.1 1002.3,469.7 1003.9,469.0 1005.7,470.4 1012.3,471.8 1022.9,470.2 1028.1,466.8 1034.2,466.7 1037.0,465.8 1041.4,460.7 1043.1,460.6 1047.0,462.6 1051.0,463.3 1062.3,463.0 1066.3,459.7 1068.8,459.2 1077.2,461.5 1087.8,455.5 1092.9,455.4 1104.8,451.7 1119.1,446.0 1131.6,443.9 1140.5,441.4 1144.5,440.2 1145.5,438.5 1144.6,438.2 1137.6,441.1 1133.2,441.9 1130.3,441.6 1124.9,442.9 1122.9,442.5 1122.9,441.3 1121.6,441.3 1121.0,442.3 1117.4,441.7 1100.6,444.5 1097.6,444.0 1094.8,441.9 1089.6,442.3 1071.3,438.6 1067.7,440.9 1059.3,441.8 1053.3,444.3 1049.0,443.9 1031.6,445.4 1026.9,447.8 1023.2,446.2 1012.7,446.2 1009.2,448.8 1007.5,448.3 1003.6,445.1 1003.8,441.1 1004.7,439.5 990.3,438.9 990.5,426.4 989.5,426.4 989.3,438.8 987.1,438.7 986.8,440.3 981.1,440.0 978.8,435.0 976.3,433.2 972.1,432.8 965.4,434.4 965.3,437.6 967.2,440.3 967.0,443.7 962.3,447.1 957.7,446.9 953.5,444.0 947.8,442.7 940.4,442.4 937.8,443.1 937.1,439.5 936.9,440.9 933.2,441.2 932.8,438.2 932.7,440.8 928.2,441.1 927.7,438.7 928.0,441.4 922.3,442.2 922.1,441.3 921.4,441.4 919.9,444.8 918.7,444.9 917.5,443.5 918.6,441.2 917.6,441.0 916.0,443.0 914.3,443.3 910.3,441.7 904.4,438.6 903.2,437.3 904.1,436.1 902.1,436.6 899.1,433.0 889.7,428.4 888.3,425.8 892.7,420.4 891.9,418.7 890.0,418.2 891.3,416.6 890.4,416.3 893.4,414.4 897.9,413.2 899.4,413.4 900.3,414.5 902.0,414.5 902.3,413.5 906.2,412.2 907.5,412.4 908.1,414.4 908.7,412.3 914.6,412.3 916.6,413.8 924.4,413.3 925.8,414.1 930.7,414.4 932.5,413.8 934.9,414.2 934.6,415.1 935.2,415.2 936.4,412.0 940.6,411.8 941.4,421.4 942.5,421.4 941.9,413.1 946.6,411.3 950.7,420.0 951.6,419.7 946.8,408.9 952.3,405.9 954.6,405.7 958.3,414.3 958.8,414.1 955.0,405.5 958.9,404.1 960.5,406.8 959.9,405.2 962.8,403.9 965.8,404.1 966.9,403.5 969.3,399.2 970.8,398.3 976.5,398.2 976.8,396.6 972.1,395.6 973.9,395.8 974.2,392.0 978.3,392.5 978.3,391.9 974.2,391.7 974.3,390.8 978.3,391.0 978.4,390.5 974.3,390.5 974.5,387.0 964.2,386.4 964.1,387.5 963.2,387.2 959.4,385.3 958.6,383.4 955.7,381.8 945.1,378.0 935.7,373.0 931.6,371.8 922.1,372.1 916.9,369.9 914.0,367.8 911.6,368.3 902.9,366.3 898.1,366.5 897.2,365.8 893.7,367.8 886.3,368.5 875.9,367.3 876.8,363.8 876.0,363.7 875.0,367.2 870.8,366.9 868.8,365.2 864.8,364.5 863.6,362.3 863.0,357.5 860.3,355.4 856.9,356.2 855.4,357.8 857.1,359.6 856.9,360.3 854.0,362.0 853.1,363.9 847.7,366.7 844.6,366.8 840.8,365.0 836.1,364.4 829.1,360.6 826.8,359.2 822.1,352.6 823.0,352.0 822.0,352.0 821.0,350.8 822.0,347.0 824.4,343.6 825.9,342.9 827.1,343.7 826.5,343.1 827.9,340.3 825.7,337.3 821.7,336.8 818.9,333.5 814.1,331.2 817.8,319.6 828.7,313.8 830.9,317.1 832.6,316.4 830.9,312.8 841.8,308.8 848.0,303.0 853.7,307.2 860.2,314.2 861.8,314.4 872.2,323.7 873.8,325.6 870.7,329.7 874.8,333.2 875.5,334.8 882.6,336.7 888.4,337.0 893.0,338.7 895.3,340.7 898.4,341.5 900.9,341.1 904.2,342.5 915.8,339.7 918.3,339.7 918.6,340.3 920.7,338.6 920.3,337.4 921.0,335.1 924.6,327.3 924.3,323.4 919.3,315.3 918.2,314.7 916.7,316.1 914.0,316.0 912.3,314.1 912.8,316.0 911.5,316.5 904.4,323.5 902.5,323.9 895.6,322.7 895.7,314.9 894.3,314.9 894.5,309.5 893.7,309.4 893.5,314.8 892.1,314.8 891.4,321.6 886.1,324.7 881.3,326.2 874.5,324.0 864.4,314.9 864.2,313.3 865.2,313.2 865.0,312.0 861.5,312.4 858.0,288.1 855.7,288.4 851.5,279.1 851.8,277.3 853.8,275.4 855.0,274.8 857.2,275.5 860.1,273.9 859.7,271.2 860.5,269.7 859.3,269.2 860.8,261.1 859.7,260.9 858.5,267.2 847.4,266.0 846.6,266.8 842.0,262.1 842.5,261.7 836.6,256.9 841.4,252.0 836.6,250.7 836.8,250.1 835.9,249.9 836.8,246.8 844.8,235.9 851.2,229.9 849.6,228.6 856.1,222.0 862.4,227.2 875.0,230.3 875.4,232.5 874.6,232.6 875.6,239.3 880.4,238.8 879.3,221.6 885.8,220.4 883.7,211.6 888.9,210.6 887.1,201.2 892.5,196.7 900.9,197.6 901.8,195.4 900.3,193.0 898.5,192.8 898.0,191.8 898.9,190.9 898.2,189.5 900.5,188.3 900.8,187.2 898.1,182.8 891.7,177.6 885.8,176.6 880.2,172.1 874.2,169.1 873.4,168.0 868.0,165.8 861.6,159.5 860.0,156.3 862.1,154.7 860.9,153.5 863.3,151.7 871.7,147.7 873.7,148.1 874.7,149.3 875.3,152.9 880.8,156.0 882.2,154.2 881.2,153.6 884.3,146.3 883.7,145.2 884.3,144.3 889.7,140.7 897.2,137.7 900.5,135.2 907.1,132.4 908.5,128.8 914.4,126.1 916.5,123.8 915.3,121.7 916.0,120.3 913.9,112.5 920.0,111.8 924.3,106.5 928.3,106.1 928.5,100.3 927.0,99.1 926.5,99.5 925.5,97.6 926.1,95.2 924.7,93.4 922.2,92.4 916.1,93.9 915.4,93.4 915.9,92.9 913.3,91.8 906.3,95.8 900.9,96.0 899.4,94.9 884.7,99.6 881.9,102.5 873.6,104.0 873.9,104.8 878.1,104.0 882.2,105.2 884.4,104.8 885.0,105.6 875.3,112.8 873.7,115.3 869.2,132.5 868.0,134.6 869.1,137.3 871.2,138.4 872.6,143.3 871.5,144.4 869.1,143.8 870.8,145.2 869.9,146.7 862.8,149.7 857.5,153.9 855.0,154.9 849.8,155.4 841.3,151.2 832.7,148.9 825.6,141.8 825.6,140.4 822.5,135.4 819.7,134.1 818.5,132.2 810.3,131.0 808.4,128.9 807.0,125.3 805.5,124.3 803.2,119.4 800.4,117.1 800.8,114.9 799.7,113.0 794.6,108.0 794.5,100.9 795.2,100.0 793.4,99.6 789.9,93.8 784.5,92.6 772.0,96.6 763.9,96.3 740.4,88.9 739.7,87.7 736.8,86.3 715.7,82.3 702.5,76.2 697.7,72.7 672.8,65.9 659.6,60.8 653.9,60.2 640.1,55.1 633.0,54.0 621.1,55.5 607.3,55.1 602.1,53.0 598.8,53.2 597.3,54.2 593.9,53.6 583.8,53.9 582.0,51.0 570.3,45.5 568.9,46.2 569.6,49.8 568.1,53.5 564.2,57.8 561.4,59.1 557.6,60.0 556.8,60.9 550.3,60.2 547.2,62.4 546.2,64.5 543.3,63.3 532.1,64.1 523.8,62.8 518.8,65.2 516.6,67.5 515.6,69.1 516.4,70.7 519.1,72.4 522.8,77.4 523.3,76.7 525.6,76.9 525.6,76.3 526.3,77.1 526.1,76.4 528.1,76.1 530.3,77.4 530.9,79.9 529.6,86.9 519.3,89.4 519.0,90.1 519.4,93.0 518.8,93.4 520.0,93.3 523.7,97.7 521.5,100.3 520.1,100.6 517.9,99.0 510.4,96.3 506.2,97.7 504.5,101.9 503.7,102.1 497.4,98.7 488.6,101.4 488.3,100.3 487.5,100.6 486.3,97.7 484.6,96.8 478.4,95.8 473.7,96.0 472.9,94.9 470.0,94.6 466.0,95.6 462.7,98.2 462.3,100.3 463.5,101.7 462.4,101.5 462.7,102.6 464.5,105.5 467.7,105.3 471.2,104.0 473.7,104.7 480.0,112.3 482.6,113.5 485.3,117.5 486.8,118.5 487.9,118.2 489.0,119.7 491.2,119.8 491.9,121.8 491.8,120.1 492.5,119.9 496.8,120.8 499.7,130.8 506.8,136.5 507.3,138.7 506.4,144.9 509.1,147.3 514.2,149.2 519.0,152.4 524.5,168.3 523.3,178.6 519.1,188.4 516.6,192.2 515.1,193.8 511.3,195.2 506.9,195.0 501.0,199.9 496.8,206.0 494.9,207.3 489.3,205.1 486.7,205.3 483.3,202.8 481.3,202.6 477.8,202.7 476.8,203.8 477.3,204.1 476.3,206.0 474.7,206.4 471.2,202.0 464.2,199.9 461.7,200.9 459.9,204.0 457.4,205.6 457.9,206.6 457.7,208.2 456.7,208.9 457.5,209.2 457.2,210.4 454.7,212.6 449.7,215.2 440.5,218.4 426.0,221.8 406.1,224.4 387.1,224.1 383.9,222.9 381.1,219.7 377.3,218.0 376.5,215.1 374.9,214.6 374.5,213.1 365.3,207.4 364.5,205.0 365.7,202.8 365.6,200.6 362.6,197.5 358.4,195.0 359.4,195.6 358.7,197.0 353.9,196.6 353.1,195.6 351.6,196.1 348.3,195.3 346.6,193.9 344.7,190.2 346.0,188.1 345.2,186.0 341.2,184.5 338.8,182.5 338.2,183.2 336.7,182.1 333.7,183.3 329.8,182.4 329.3,183.8 326.4,184.1 320.0,179.4 314.6,181.4 311.2,180.5 309.1,178.6 310.1,177.4 306.4,175.4 305.4,175.9 303.7,175.5 303.4,174.7 302.7,175.5 299.9,174.6 298.2,175.5 292.2,175.4 286.7,172.0 284.8,171.8 283.8,172.5 280.4,170.5 275.6,169.9 269.1,169.7 260.7,172.2 259.6,172.2 258.9,170.3 259.4,173.3 257.3,174.2 247.1,171.5 238.1,170.8 231.3,173.5 228.2,172.8 224.2,173.1 209.8,177.0 206.6,176.8 201.3,174.9 195.6,174.9 187.8,176.8 183.6,175.9 178.8,178.2 173.7,172.3 173.0,172.4 176.2,176.1 177.3,179.1 175.1,178.4 175.2,179.4 174.1,180.0 170.8,180.7 166.0,179.8 160.1,182.1 159.8,182.8 161.2,183.3 161.6,186.0 160.9,191.0 151.0,200.2 149.5,200.4 148.4,207.4 148.7,213.7 150.1,216.5 151.3,217.4 156.1,218.6 166.4,218.4 168.8,223.4 173.5,225.8 178.6,226.1 184.3,222.8 188.7,222.5 191.5,223.5 192.3,224.6 197.7,225.1 201.4,226.2 201.3,226.8 202.4,226.3 213.5,230.5 217.9,233.7 225.4,235.7 225.4,236.3 226.1,235.6 228.9,235.6 236.6,237.8 237.7,237.2 241.1,237.5 246.5,242.2 250.9,244.7 253.5,243.6 259.5,244.2 266.8,245.8 271.3,248.2 281.6,250.9 287.9,247.1 293.6,246.6 300.6,247.2 305.1,245.4 308.9,244.9 323.3,248.7 337.0,249.9 342.2,252.1 347.9,252.9 351.7,254.9 354.6,255.0 357.5,256.5 359.2,259.7 361.1,266.4 360.8,278.3 359.7,280.7 359.3,286.2 340.6,300.0 337.1,303.7 335.2,308.7 333.6,308.6 330.5,313.1 315.5,318.3 308.4,323.7 305.1,324.4 299.5,323.8 291.9,326.6 287.0,326.7 282.7,328.5 262.4,333.0 259.8,335.2 256.9,335.6 253.7,332.3 249.8,331.2 243.2,334.5 240.6,334.4 238.7,328.1 232.8,327.6 230.6,324.8 230.0,327.0 225.7,330.2 222.4,328.7 220.8,328.8 214.9,332.0 212.5,336.0 210.3,335.7 202.5,338.2 199.9,341.9 194.2,341.8 184.3,348.1 180.1,348.4 178.7,350.3 180.1,355.1 178.3,356.5 171.1,357.7 166.9,356.9 165.4,358.9 156.0,361.4 150.6,365.3 146.0,366.9 146.2,370.8 150.0,374.2 153.4,375.7 156.6,376.3 161.2,374.7 166.7,377.1 172.6,378.1 177.9,377.7 180.8,379.2 184.7,378.3 189.8,374.0 188.4,366.4 194.5,366.1 198.1,364.8 202.6,359.9 203.2,361.8 200.9,371.1 205.2,376.5 200.3,378.8 193.4,389.7 192.3,392.9 193.4,394.7 191.7,397.1 189.6,406.8 190.3,408.1 200.2,407.3 203.4,406.1 206.1,400.9 211.7,398.8 219.3,398.8 226.3,397.7 230.5,394.9 233.8,391.9 237.0,385.7 242.4,380.4 243.3,377.7 242.4,376.3 234.0,375.1 233.7,373.1 234.9,372.3 236.0,369.2 236.9,368.9 239.6,370.3 245.4,366.6 251.3,364.5 255.1,364.9 254.9,365.6 259.6,368.8 263.2,373.0 264.2,375.9 268.6,378.8 279.5,377.4 287.3,383.6 290.7,384.3 292.7,383.5 294.7,385.2 295.1,386.8 298.8,388.7 302.1,386.2 303.3,386.3 304.1,389.9 305.8,391.3 310.4,391.5 313.7,394.3 324.5,393.9 326.8,396.0 333.5,397.8 340.4,400.6 343.0,399.1 346.0,399.3 347.6,397.6 351.3,397.7 353.6,398.9 358.0,403.8 358.8,403.7 362.5,410.2 362.1,410.5 365.9,409.6 368.6,412.4 371.9,411.1 375.8,411.5 376.9,409.5 381.6,407.5 382.1,405.1 399.0,403.1 402.3,399.8 407.2,400.2 414.5,402.4 416.0,401.8 420.9,403.4 421.7,402.9 430.0,403.6 435.1,401.6 437.1,399.6 440.4,399.4 446.4,397.1 453.3,389.6 455.6,388.8 457.4,386.6 462.6,385.0 467.1,380.6 472.2,371.3 476.9,364.8 484.6,360.3 502.4,346.1 509.0,339.7 515.0,336.5 518.6,335.5 519.1,334.4 523.3,333.6 527.4,333.9 531.6,335.0 531.7,336.7 538.8,336.6 543.7,334.5 561.3,333.0 564.3,334.0 564.2,333.3 566.4,333.0 569.0,333.6 574.8,332.5 603.9,330.5 606.1,331.0 608.5,335.2 616.3,342.5 616.9,341.7 609.4,334.8 606.7,329.9 611.7,328.8 627.3,328.4 628.3,332.2 634.8,333.8 635.2,335.0 636.4,335.1 635.9,327.9 636.5,327.8 636.6,320.9 640.1,320.0 642.3,323.5 655.7,320.3 659.5,326.5 635.7,349.5 628.5,343.4 628.9,338.9 627.8,338.6 628.0,344.0 634.6,349.9 633.6,349.8 634.5,350.3 633.5,350.1 633.0,351.6 633.6,352.0 632.3,352.1 631.5,354.8 633.5,356.7 634.3,361.2 634.1,365.7 632.1,371.4 618.6,388.2 614.5,391.1 605.4,393.6 602.3,393.7 601.8,399.0 599.4,405.0 593.9,408.2 592.0,408.4 590.5,412.3 588.2,414.9 587.5,425.5 585.6,426.3 583.3,428.9 581.4,429.5 578.2,432.6 572.4,435.1 564.6,442.2 563.4,449.3 559.2,454.1 548.4,459.6 547.3,461.8 547.3,464.7 541.6,472.2 538.2,474.4 535.6,480.7 531.6,506.6 529.6,509.0 527.9,513.0 527.0,517.4 523.9,522.8 521.9,522.7 519.4,525.1 518.9,527.3 515.3,529.6 512.4,535.4 510.5,537.5 509.1,537.4 508.4,538.9 506.6,540.3 505.3,540.1 502.0,545.2 488.5,577.7 483.3,583.1 474.0,596.1 468.5,599.0 467.1,598.6 463.5,600.6 458.0,600.5 451.4,603.3 441.4,604.8 431.5,604.6 419.1,600.0 406.3,598.9 399.9,597.1 392.1,598.2 391.6,597.6 389.9,598.9 388.4,598.3 384.1,599.4 381.9,599.1 374.5,597.1 374.0,595.7 373.4,596.1 365.0,594.4 363.5,593.0 359.9,593.1 344.5,588.2 335.6,588.7 331.1,586.7 328.1,586.4 327.4,585.0 322.5,584.9 318.6,582.2 312.7,580.6 309.8,580.6 301.9,578.4 294.5,580.5 277.0,574.1 274.7,572.4 265.8,571.8 263.4,568.0 261.9,567.2 255.7,568.0 245.5,566.5 245.4,565.9 244.4,566.7 242.2,566.6 229.8,562.8 227.5,563.8 227.4,564.7 225.9,564.5 226.2,563.2 225.4,563.3 218.8,566.6 217.4,565.9 217.3,564.1 215.4,562.6 211.0,564.2 208.7,567.3 200.0,565.0 198.5,566.4 200.5,569.5 201.0,571.8 198.0,569.9 192.5,569.7 188.2,573.5 186.2,573.1 184.0,575.6 181.3,573.9 180.7,572.5 179.2,573.0 178.3,572.4 175.4,575.1 174.4,574.7 174.9,573.6 173.0,575.0 174.1,575.7 174.2,576.9 173.2,577.3 173.7,579.5 172.4,580.9 171.3,581.5 170.3,580.7 168.8,582.9 164.9,583.7 162.6,582.2 161.0,579.7 158.9,582.8 155.2,585.9 153.5,586.4 149.6,580.2 147.0,579.6 144.1,580.1 142.0,581.8 139.3,587.7 135.5,587.8 134.2,586.6 133.1,583.5 130.6,581.5 131.8,578.4 129.8,571.1 131.8,566.7 131.2,565.5 124.4,563.3 120.8,559.3 119.7,559.2 117.5,561.1 107.7,562.1 105.6,561.1 103.4,558.5 101.5,557.9 95.1,559.7 85.6,557.0 84.6,558.0 82.1,557.2 77.7,558.0 81.3,559.6 87.6,570.3 88.6,573.5 92.4,575.8 94.2,579.9 87.0,583.9 87.3,585.4 84.7,587.7 86.5,592.5 86.2,593.5 81.9,595.5 79.7,597.6 84.7,605.3 84.6,607.7 87.2,609.6 88.9,609.8 90.0,611.4 96.4,615.8 101.0,617.4 108.0,618.3 116.0,623.1 117.3,621.6 120.4,623.5 121.1,625.2 120.0,627.4 118.6,626.7 117.5,629.2 118.3,629.5 115.9,632.3 113.8,632.5 113.9,635.3 109.4,636.2 101.4,643.8 102.8,647.1 104.8,648.8 92.4,649.7 88.6,651.6 91.0,660.5 87.6,665.5 86.1,670.7 83.8,669.5 78.9,664.6 75.6,664.0 73.2,664.5 73.6,668.7 75.6,671.8 74.4,678.9 69.9,682.6 66.6,687.0 71.2,689.7 76.1,694.4 75.8,695.5 69.8,697.0 59.6,709.7 59.6,711.7 60.3,713.3 65.1,718.3 66.9,718.9 71.6,718.3 71.5,721.4 77.0,726.1 79.5,726.5 80.3,725.8 83.7,727.7 83.9,729.2 85.7,730.2 93.4,729.5 95.7,731.5 99.6,741.2 100.3,746.5 99.3,767.8 97.5,772.1 93.5,775.5 84.6,775.3 85.5,772.9 87.6,771.6 87.1,771.2 84.7,772.5 83.6,775.1 82.0,775.6 79.1,774.8 74.0,774.8 69.1,777.5 67.4,789.0 68.2,789.5 67.8,790.9 68.5,792.6 70.3,794.2 58.0,795.7 55.4,797.8 54.5,801.9 56.7,802.2 57.9,804.7Z M754.3,729.8 754.7,729.8 754.6,729.7 754.3,729.8Z M729.6,798.0 731.0,798.5 729.5,797.9 729.6,798.0Z M565.6,814.9 566.2,815.1 565.8,814.7 565.6,814.9Z M555.5,842.4 555.6,842.2 555.5,842.3 555.5,842.4Z M556.2,842.6 556.3,842.4 556.1,842.5 556.2,842.6Z M551.6,850.2 551.7,850.0 551.5,850.1 551.6,850.2Z M551.8,851.2 552.3,850.9 551.8,850.9 551.8,851.2Z M529.0,859.7 529.0,859.1 528.6,859.6 529.0,859.7Z" />
  <g id="custom_regions">
    <path id="custom_Αιάντειο" class="custom-area" fill="#fbb4ae" fill-rule="evenodd" d="M281.5,600.2 293.5,612.2 310.8,621.3 325.4,614.5 325.4,632.1 337.5,619.0 356.6,625.9 368.7,619.6 383.4,629.3 385.9,641.9 396.1,647.1 421.0,632.8 440.7,628.2 449.0,640.8 467.5,638.0 476.4,640.2 491.1,619.1 514.0,613.9 516.5,587.6 536.9,576.7 552.1,560.1 541.3,548.1 554.0,528.6 554.0,516.1 565.4,501.6 586.3,513.1 600.9,499.9 588.8,473.7 584.4,461.1 597.8,442.3 580.6,432.6 566.6,440.3 564.6,442.2 563.5,449.0 564.0,451.4 548.2,463.4 541.6,472.2 538.2,474.4 537.1,477.1 534.2,497.1 526.6,522.8 515.0,530.2 512.4,535.4 510.5,537.5 509.1,537.4 504.9,543.4 489.7,577.1 471.2,600.6 459.1,600.6 444.4,605.2 421.4,604.6 412.4,599.4 405.3,598.6 381.9,599.1 344.3,589.1 335.6,588.7 333.2,587.6 310.6,584.6 294.6,581.2 281.5,600.2Z" />
    <path id="custom_Αμπελάκια" class="custom-area" fill="#b3cde3" fill-rule="evenodd" d="M817.8,425.2 826.3,425.2 827.9,430.7 850.8,432.5 852.1,427.0 856.8,427.0 858.2,411.8 874.5,399.5 867.8,391.9 858.2,399.0 849.3,391.9 856.5,379.1 849.3,373.0 833.8,376.1 819.5,381.9 822.5,391.9 815.1,395.6 812.4,400.8 815.4,408.1 810.6,426.1 817.1,431.6 817.8,425.2Z" />
    <path id="custom_Βασιλικά" class="custom-area" fill="#ccebc5" fill-rule="evenodd" d="M537.5,208.1 566.5,212.3 580.7,197.9 567.1,182.2 579.0,173.0 575.0,156.7 565.9,149.1 566.4,130.7 549.4,129.2 539.2,122.0 530.6,118.9 502.3,131.1 509.1,136.7 507.9,142.8 521.1,150.0 527.3,161.7 528.4,172.9 523.3,187.7 517.0,193.4 518.2,195.9 537.5,208.1Z" />
    <path id="custom_Κακή_Βίγλα" class="custom-area" fill="#decbe4" fill-rule="evenodd" d="M704.8,680.0 701.4,671.7 690.0,659.2 667.1,657.5 662.4,652.2 654.8,651.7 646.4,655.3 647.0,648.1 642.1,652.2 638.4,664.2 638.7,675.3 643.9,685.3 656.9,693.9 685.9,707.8 693.6,701.7 697.7,690.0 703.8,679.5 704.8,680.0Z" />
    <path id="custom_Κανάκια" class="custom-area" fill="#fed9a6" fill-rule="evenodd" d="M111.6,737.3 141.6,733.9 170.8,725.6 168.1,712.4 171.9,709.6 166.9,696.1 172.7,693.4 168.9,687.0 158.1,690.9 155.9,689.0 159.3,685.4 157.2,681.4 149.7,682.8 145.9,686.6 145.8,691.1 147.3,693.0 143.0,694.9 134.1,708.1 130.3,704.8 109.5,719.2 107.0,727.7 100.6,730.2 96.8,727.7 91.5,729.4 93.4,729.5 95.7,731.5 100.3,740.7 111.6,737.3Z" />
    <path id="custom_Κολώνες" class="custom-area" fill="#ffffcc" fill-rule="evenodd" d="M320.3,936.6 324.8,934.2 330.0,933.5 336.2,910.2 340.8,911.2 338.6,918.1 352.9,919.7 357.3,910.6 356.3,905.5 361.4,906.4 353.7,898.6 346.4,894.5 345.0,904.6 341.0,903.6 337.2,899.2 336.2,895.7 329.3,894.1 325.4,898.3 322.3,897.5 321.0,889.9 294.5,891.8 294.5,901.2 306.1,898.8 305.5,901.4 298.7,910.8 306.4,917.2 315.7,904.5 328.0,909.3 317.5,914.9 317.0,917.9 320.5,921.8 315.9,932.7 320.3,936.6Z" />
    <path id="custom_Κυνοσούρα" class="custom-area" fill="#e5d8bd" fill-rule="evenodd" d="M1021.1,456.1 1010.3,457.8 998.6,455.7 982.4,455.5 981.2,458.5 979.1,459.4 965.9,458.8 965.7,463.6 968.2,468.4 972.0,470.2 972.9,472.9 971.7,476.7 973.5,476.7 973.3,477.6 981.9,473.6 985.6,470.4 986.7,470.1 989.5,471.5 992.9,468.5 996.7,466.6 1000.9,468.1 1002.2,469.6 1003.9,469.0 1005.9,470.5 1012.3,471.8 1013.3,471.0 1022.5,470.3 1021.1,456.1Z" />
    <path id="custom_Μπάτσι" class="custom-area" fill="#fddaec" fill-rule="evenodd" d="M647.4,70.0 647.4,75.7 654.4,75.5 657.5,86.8 686.0,93.3 680.4,89.1 704.4,88.3 706.1,79.5 694.9,72.5 671.7,67.5 649.1,59.2 647.4,70.0Z" />
    <path id="custom_Παλούκια" class="custom-area" fill="#f2f2f2" fill-rule="evenodd" d="M817.8,319.4 826.3,314.2 842.9,307.2 847.3,299.3 840.5,302.3 815.7,304.1 802.5,302.9 795.7,301.1 790.6,297.1 786.5,290.4 789.5,282.2 780.7,281.5 757.3,283.1 742.3,281.5 735.5,279.1 699.5,277.0 673.3,282.4 664.9,291.9 670.6,296.5 673.3,308.7 661.4,309.9 657.0,318.7 661.4,323.9 657.6,328.3 661.8,333.4 668.6,336.4 672.7,330.3 679.1,332.5 695.4,345.0 710.0,351.4 725.4,356.9 741.3,356.0 744.7,345.6 746.1,329.7 762.1,336.8 754.9,357.8 773.3,362.7 785.5,364.2 790.3,368.2 793.0,365.4 799.1,365.7 806.6,347.7 820.5,347.7 826.7,342.2 823.9,337.1 821.7,336.8 819.8,334.6 814.1,332.5 817.8,319.4Z" />
    <path id="custom_Περάνι" class="custom-area" fill="#b3e2cd" fill-rule="evenodd" d="M571.4,781.4 575.2,777.0 580.9,773.7 583.8,769.7 582.7,764.8 578.9,760.4 570.8,755.0 566.5,747.8 558.4,742.0 545.1,743.2 533.6,750.3 532.0,758.9 520.8,758.2 521.2,770.3 512.2,780.4 513.6,788.1 517.6,797.4 523.7,797.8 522.8,802.4 518.7,806.3 521.9,811.5 557.5,802.2 557.1,799.4 558.3,798.9 556.8,797.7 558.3,794.5 562.4,789.4 571.4,781.4Z" />
    <path id="custom_Περιστέρια" class="custom-area" fill="#fdcdac" fill-rule="evenodd" d="M436.9,904.6 445.9,895.8 452.6,897.9 464.0,891.0 457.8,884.0 457.3,882.1 455.9,880.8 456.2,879.7 457.1,877.3 474.0,861.0 462.1,836.9 453.4,837.1 436.7,846.2 438.2,852.4 442.1,862.0 439.8,866.8 435.7,868.3 430.5,866.0 429.1,860.8 427.6,845.0 423.4,836.9 418.7,836.5 416.1,838.8 409.4,838.6 397.9,848.2 393.5,865.8 395.6,882.4 402.5,889.7 403.3,896.0 398.5,905.6 407.2,912.4 417.8,908.6 423.1,912.6 420.2,915.3 423.6,914.4 428.2,914.7 426.9,911.4 429.0,908.0 432.4,905.1 434.5,904.2 436.9,904.6Z" />
    <path id="custom_Σαλαμίνα" class="custom-area" fill="#cbd5e8" fill-rule="evenodd" d="M517.8,333.5 528.4,333.1 532.7,336.2 543.7,333.8 608.6,328.4 626.5,328.2 627.3,328.4 628.4,331.9 634.9,333.8 635.4,321.0 636.6,321.3 640.1,320.0 642.1,322.8 639.7,316.5 645.6,314.1 663.0,312.0 670.0,307.9 672.0,299.5 668.7,295.8 658.6,292.6 636.2,289.1 635.4,277.9 634.0,271.9 627.5,272.3 621.7,279.0 610.5,280.3 587.4,290.6 577.7,296.7 571.3,291.3 567.0,293.1 563.8,301.1 575.5,306.7 600.8,312.7 598.1,318.1 581.9,324.1 568.7,321.2 513.0,322.8 514.9,336.4 517.8,333.5Z" />
    <path id="custom_Σατερλί" class="custom-area" fill="#f4cae4" fill-rule="evenodd" d="M266.6,873.4 277.4,883.7 280.7,878.7 277.3,878.1 273.1,865.2 274.6,859.7 278.4,852.4 284.4,849.0 281.6,841.2 282.6,837.4 288.3,834.9 289.3,830.8 295.7,829.7 295.6,825.6 288.4,823.4 271.0,824.9 266.9,831.1 267.3,836.8 262.9,842.0 259.6,848.0 244.5,849.4 240.0,857.3 248.1,855.0 248.9,857.6 244.0,865.4 251.4,870.0 255.9,870.0 258.6,871.1 257.2,869.5 260.0,868.9 266.6,873.4Z" />
    <path id="custom_Σελήνια" class="custom-area" fill="#e6f5c9" fill-rule="evenodd" d="M691.1,527.9 749.0,536.4 750.8,521.4 769.3,516.6 773.4,524.5 798.0,522.7 802.7,534.8 800.9,544.6 789.5,552.5 761.4,559.5 758.7,563.8 768.1,569.8 775.1,568.4 771.6,583.2 779.8,586.1 798.3,587.7 832.0,584.8 838.7,585.1 843.2,586.6 840.2,594.0 827.6,601.6 803.3,604.8 801.3,609.5 798.6,611.6 809.5,614.7 824.7,614.7 842.6,610.8 846.6,606.6 849.0,595.5 855.5,595.1 861.6,604.0 895.0,590.6 900.0,592.2 903.1,590.8 911.0,594.9 917.8,595.5 920.8,596.7 924.7,595.5 936.4,594.4 939.5,592.3 942.6,581.3 941.5,579.9 928.6,573.4 927.2,573.9 927.0,572.6 922.0,570.1 928.7,563.8 927.3,559.0 924.1,557.7 920.3,557.8 907.6,563.5 898.7,563.5 896.6,562.7 892.7,558.0 883.9,549.8 881.8,541.4 879.6,538.2 881.6,524.0 885.9,509.6 890.3,489.5 892.1,486.7 895.9,487.2 898.8,483.5 898.8,481.4 899.5,480.8 899.4,479.8 893.8,475.1 883.6,476.7 878.0,469.1 875.1,472.8 873.9,485.1 865.4,483.5 863.9,476.7 859.3,474.6 845.5,479.3 838.2,480.1 830.3,487.0 825.3,505.4 815.3,506.2 810.9,500.6 805.4,497.5 791.6,503.0 785.7,502.2 774.0,506.4 755.0,505.9 743.8,498.0 738.6,504.8 733.0,497.2 721.6,501.4 702.9,509.9 698.4,518.0 691.1,527.9Z" />
    <path id="custom_Σπιθάρι" class="custom-area" fill="#fff2ae" fill-rule="evenodd" d="M922.5,413.4 922.8,404.4 916.3,404.4 910.2,401.1 900.7,403.9 881.3,402.9 865.0,409.9 866.3,430.7 875.2,434.0 873.8,442.0 887.8,439.5 898.3,443.8 915.0,446.3 918.4,441.7 914.3,443.3 904.4,438.6 903.2,437.3 904.1,436.1 902.1,436.6 899.1,433.0 889.7,428.4 888.3,425.8 892.7,420.4 891.9,418.7 890.0,418.2 891.3,416.6 890.4,416.3 893.4,414.4 897.9,413.2 899.4,413.4 900.3,414.5 902.0,414.5 902.3,413.5 906.2,412.2 907.5,412.4 908.1,414.4 908.7,412.3 914.6,412.3 916.6,413.8 922.5,413.4Z" />
    <path id="custom_Στενό" class="custom-area" fill="#fbb4ae" fill-rule="evenodd" d="M300.5,235.0 292.4,229.5 281.3,230.3 267.0,229.0 259.2,223.5 250.2,220.7 255.9,215.0 255.3,211.7 236.5,211.2 225.9,212.2 203.9,204.2 194.6,207.0 163.1,206.8 160.8,217.6 168.4,218.3 169.3,222.6 177.6,225.1 189.1,221.1 212.3,229.1 220.4,233.1 236.5,235.1 243.8,237.9 248.0,242.9 258.9,243.1 281.8,249.2 290.5,245.6 305.0,244.8 300.5,235.0Z" />
    <path id="custom_Ψιλή_Άμμος" class="custom-area" fill="#b3cde3" fill-rule="evenodd" d="M406.8,245.8 437.0,241.2 469.4,246.3 479.0,237.7 493.8,231.6 512.6,229.0 526.2,229.0 528.4,218.8 514.8,195.4 495.5,210.2 480.2,205.6 473.3,208.1 462.6,202.6 456.8,211.2 449.7,215.2 440.5,218.4 431.3,220.6 422.2,223.9 390.8,227.4 406.8,245.8Z" />
  </g>
  <g id="markers_and_labels">
    <circle cx="460.0" cy="610.9" r="2" class="marker" />
    <text x="460.0" y="605.9" class="label">Αιάντειο</text>
    <circle cx="836.6" cy="412.3" r="2" class="marker" />
    <text x="836.6" y="407.3" class="label">Αμπελάκια</text>
    <circle cx="135.4" cy="721.1" r="2" class="marker" />
    <text x="135.4" y="716.1" class="label">Κανάκια</text>
    <circle cx="1009.8" cy="462.9" r="2" class="marker" />
    <text x="1009.8" y="457.9" class="label">Κυνοσούρα</text>
    <circle cx="679.7" cy="74.3" r="2" class="marker" />
    <text x="679.7" y="69.3" class="label">Μπάτσι</text>
    <circle cx="556.1" cy="777.2" r="2" class="marker" />
    <text x="556.1" y="772.2" class="label">Περάνι</text>
    <circle cx="432.6" cy="882.6" r="2" class="marker" />
    <text x="432.6" y="877.6" class="label">Περιστέρια</text>
    <circle cx="616.4" cy="310.0" r="2" class="marker" />
    <text x="616.4" y="305.0" class="label">Σαλαμίνα</text>
    <circle cx="854.5" cy="541.7" r="2" class="marker" />
    <text x="854.5" y="536.7" class="label">Σελήνια</text>
    <circle cx="220.5" cy="227.3" r="2" class="marker" />
    <text x="220.5" y="222.3" class="label">Στενό</text>
    <circle cx="816.0" cy="317.3" r="2" class="marker" />
    <text x="816.0" y="312.3" class="label">Παλούκια</text>
    <circle cx="541.8" cy="156.3" r="2" class="marker" />
    <text x="541.8" y="151.3" class="label">Βασιλικά</text>
    <circle cx="328.8" cy="909.7" r="2" class="marker" />
    <text x="328.8" y="904.7" class="label">Κολώνες</text>
    <circle cx="265.2" cy="864.4" r="2" class="marker" />
    <text x="265.2" y="859.4" class="label">Σατερλί</text>
    <circle cx="672.2" cy="669.8" r="2" class="marker" />
    <text x="672.2" y="664.8" class="label">Κακή Βίγλα</text>
    <circle cx="466.5" cy="357.8" r="2" class="marker" />
    <text x="466.5" y="352.8" class="label">Σπιθάρι</text>
    <circle cx="456.6" cy="223.1" r="2" class="marker" />
    <text x="456.6" y="218.1" class="label">Ψιλή Άμμος</text>
    <circle cx="879.7" cy="425.4" r="2" class="marker" />
    <text x="879.7" y="420.4" class="label">Σπιθάρι</text>
  </g>
</svg>